<svg width="76" height="80" viewBox="0 0 76 80" fill="none" xmlns="http://www.w3.org/2000/svg">
<path fill-rule="evenodd" clip-rule="evenodd" d="M37.5008 0.551565C44.7269 1.71207 48.9803 9.04801 55.3192 12.6967C61.6586 16.3456 71.6046 15.4328 74.7796 22.0091C78.0169 28.7147 72.6513 36.4486 70.1759 43.4695C68.3384 48.6815 64.0111 52.467 62.2002 57.6883C59.8106 64.5779 64.139 74.9027 57.9357 78.761C51.8296 82.5589 43.6649 76.7543 37.5008 73.0509C32.8618 70.2638 32.6369 62.5642 27.6141 60.5439C21.2092 57.9677 13.0593 64.609 7.25074 60.8836C1.95942 57.49 -1.90583 49.0378 0.991523 43.4695C4.4725 36.7796 18.3625 41.0704 21.1958 34.0832C24.7872 25.2264 11.8487 14.9829 16.0286 6.38668C19.3212 -0.384527 30.0498 -0.645048 37.5008 0.551565Z" fill="#292A2D"/>
<path d="M27.3091 10.9981C27.3091 10.9981 22.0459 30.9473 19.3091 38.1052C13.1672 54.1686 15.9407 63.5281 24.6098 66.9473C33.2788 70.3665 42.0459 64.421 53.6624 67.8402C59.524 69.5655 60.1887 59.6343 60.1887 54.7876C60.1887 42.3665 63.0153 41.0977 65.2038 28.842C67.3091 17.0526 62.9255 6.43433 53.1602 7.4752C45.6947 8.27093 45.4899 12.5653 37.6624 10.9981C32.1512 9.89468 27.3091 10.9981 27.3091 10.9981Z" fill="#0E1013"/>
<path d="M34.794 37.4702L33.4853 33.2614L30.6912 33.509L28.9582 39.6985L22.9455 40.229L19.4087 38.4606L27.1544 10.8378L32.9902 10.3427L36.527 12.1111L44.4142 38.7435L38.3308 39.2387L34.794 37.4702ZM27.4373 11.1915L19.9392 38.0361L25.103 37.6117L26.8714 31.4222L33.167 30.8564L35.0415 37.1166L40.3822 36.6568L32.7072 10.7317L27.4373 11.1915ZM28.1093 26.2585C28.5573 24.7966 28.9228 23.4054 29.2057 22.085C29.5123 20.7646 29.7716 19.4441 29.9839 18.1237H30.1253C30.314 19.4206 30.5497 20.6938 30.8327 21.9435C31.1392 23.1696 31.5047 24.49 31.9291 25.9048L28.1093 26.2585Z" fill="#FFE500"/>
<path d="M39.1712 68.0118L38.8045 69.2213L32.7673 69.8635L29.734 68.4339L29.7595 69.813L24.1814 70.4114L20.6125 68.7087L20.1156 41.8333L27.0348 41.0686L30.6037 42.7713L33.6276 53.257L36.6508 40.7493L43.536 40.056L47.1049 41.7587L47.6025 68.6695L41.7408 69.2377L39.1712 68.0118ZM36.9402 41.0977L32.7696 58.5083C32.7041 58.7925 32.6395 59.1239 32.5757 59.5024C32.5115 59.8573 32.4585 60.1766 32.4166 60.4604C32.3746 60.7442 32.3537 60.8861 32.3537 60.8861L32.2129 60.9241C32.2129 60.9241 32.1867 60.783 32.1343 60.501C32.1055 60.2185 32.0522 59.8894 31.9746 59.5135C31.9204 59.1372 31.8556 58.82 31.7801 58.562L26.7591 41.4628L20.4751 42.145L20.9589 68.3132L25.8317 67.8339L25.6225 56.518C25.6134 56.0229 25.592 55.5045 25.5584 54.9627C25.5243 54.3973 25.492 53.9263 25.4615 53.5495C25.4309 53.1727 25.4157 52.9844 25.4157 52.9844L25.4857 52.9477C25.539 53.2769 25.6056 53.6883 25.6854 54.1821C25.7885 54.6519 25.8913 55.1098 25.9938 55.556C26.1196 55.9782 26.2082 56.3067 26.2597 56.5416L29.4394 67.8026L34.9114 67.2062L37.6104 56.2963C37.7418 55.7515 37.861 55.1833 37.968 54.5917C38.0745 53.9766 38.1592 53.4562 38.2221 53.0306C38.285 52.6049 38.3164 52.3921 38.3164 52.3921L38.3878 52.4261C38.3878 52.4261 38.3799 52.6385 38.3642 53.0633C38.3485 53.4881 38.334 53.9836 38.3209 54.5498C38.3078 55.1161 38.3054 55.6231 38.3137 56.0711L38.519 67.1749L43.6741 66.655L43.1895 40.4515L36.9402 41.0977Z" fill="#FFE500"/>
<path d="M51.6445 67.2976V40.4176L57.7986 39.8517L61.3354 41.6201V68.5001L55.1813 69.0307L51.6445 67.2976ZM51.9982 40.7359V66.9086L57.4449 66.4134V40.2408L51.9982 40.7359Z" fill="#FFE500"/>
<path d="M66.0327 31.3364C65.3253 32.9869 64.1817 34.378 62.602 35.5098C61.0457 36.6416 59.1241 37.3018 56.8369 37.4905C56.6247 37.514 56.4125 37.5258 56.2003 37.5258C55.9881 37.5258 55.7759 37.5258 55.5636 37.5258C53.7952 37.5258 52.1093 37.2193 50.506 36.6062C48.9262 35.9932 47.5232 35.0736 46.2971 33.8475C45.071 32.5978 44.1043 31.018 43.3969 29.1081C42.6895 27.1982 42.3359 24.9347 42.3359 22.3174C42.3359 20.3132 42.5834 18.4387 43.0786 16.6938C43.5737 14.9254 44.2929 13.3574 45.2361 11.9898C46.2028 10.6222 47.37 9.52583 48.7375 8.70056C50.1051 7.8753 51.6495 7.39193 53.3708 7.25046C53.5123 7.22688 53.6537 7.21509 53.7952 7.21509C53.9367 7.21509 54.0782 7.21509 54.2196 7.21509C55.9409 7.21509 57.615 7.60414 59.242 8.38225C60.8925 9.16035 62.3308 10.2214 63.5569 11.5654C64.8066 12.9094 65.6908 14.4302 66.2095 16.1279L62.0007 18.4976L62.4959 18.4622L66.0327 20.2307V31.3364ZM51.6377 19.7355V24.7578L57.0845 24.298V27.3397C56.778 27.9528 56.2828 28.4833 55.599 28.9313C54.9388 29.3557 54.2432 29.5915 53.5123 29.6387C53.418 29.6622 53.3119 29.674 53.194 29.674C53.0996 29.674 52.9935 29.674 52.8756 29.674C51.343 29.674 50.1876 29.061 49.4095 27.8349C48.6314 26.6088 48.2424 24.6164 48.2424 21.8576C48.2424 19.3582 48.6432 17.3658 49.4449 15.8804C50.2466 14.3949 51.5316 13.5814 53.3001 13.4399H53.6891C54.6559 13.4399 55.4811 13.7229 56.1649 14.2888C56.8723 14.8547 57.3792 15.6799 57.6857 16.7646L62.2483 14.1827C61.8474 13.0509 61.2933 11.9898 60.586 10.9995C59.9022 9.98562 59.0415 9.16035 58.0041 8.52372C56.9666 7.88709 55.7051 7.56877 54.2196 7.56877C54.1017 7.56877 53.9721 7.56877 53.8306 7.56877C53.6891 7.56877 53.5476 7.58056 53.4062 7.60414C51.1662 7.79277 49.2445 8.57088 47.6411 9.93846C46.0377 11.2825 44.8116 13.0391 43.9628 15.2084C43.114 17.354 42.6895 19.7237 42.6895 22.3174C42.6895 25.0054 43.0786 27.3279 43.8567 29.285C44.6348 31.242 45.743 32.7511 47.1813 33.8121C48.6196 34.8732 50.3291 35.4037 52.3097 35.4037C52.4748 35.4037 52.6281 35.4037 52.7695 35.4037C52.9346 35.4037 53.0996 35.3919 53.2647 35.3684C55.4811 35.1797 57.3439 34.5549 58.8529 33.4938C60.3855 32.4092 61.4937 31.077 62.1775 29.4972V18.8513L51.6377 19.7355ZM57.4735 17.2951C57.3792 16.965 57.2731 16.6585 57.1552 16.3755C57.0373 16.069 56.9076 15.7978 56.7662 15.562C55.7051 15.6564 54.8327 16.0336 54.1489 16.6938C53.4887 17.3305 52.9935 18.2029 52.6634 19.3111L60.303 18.6745L57.4735 17.2951ZM54.9977 26.986L52.239 25.5713C52.2862 26.5145 52.3805 27.2572 52.522 27.7995C52.687 28.3182 52.9228 28.8252 53.2293 29.3204C53.3001 29.2968 53.3826 29.285 53.4769 29.285C54.09 29.2378 54.703 29.0492 55.3161 28.7191C55.9291 28.3654 56.4007 27.9528 56.7308 27.4812V26.7738L54.9977 26.986Z" fill="#FFE500"/>
</svg>
